<svg width="10" height="16" viewBox="0 0 10 16" fill="none" xmlns="http://www.w3.org/2000/svg">
<path d="M9.57813 15.606C9.44554 15.7308 9.28781 15.8299 9.11401 15.8976C8.94021 15.9652 8.7538 16 8.56552 16C8.37724 16 8.19083 15.9652 8.01703 15.8976C7.84324 15.8299 7.6855 15.7308 7.55291 15.606L0.42187 8.94575C0.288194 8.82192 0.182092 8.6746 0.109685 8.51227C0.0372786 8.34995 0 8.17585 0 8C0 7.82415 0.0372786 7.65005 0.109685 7.48773C0.182092 7.3254 0.288194 7.17808 0.42187 7.05425L7.55291 0.394017C7.6855 0.269166 7.84324 0.170069 8.01703 0.102443C8.19083 0.0348167 8.37724 0 8.56552 0C8.7538 0 8.94021 0.0348167 9.11401 0.102443C9.28781 0.170069 9.44554 0.269166 9.57813 0.394017C9.71181 0.517848 9.81791 0.665174 9.89031 0.827497C9.96272 0.989819 10 1.16392 10 1.33977C10 1.51561 9.96272 1.68972 9.89031 1.85204C9.81791 2.01437 9.71181 2.16169 9.57813 2.28552L3.44543 8L9.57813 13.7145C9.71181 13.8383 9.81791 13.9856 9.89031 14.148C9.96272 14.3103 10 14.4844 10 14.6602C10 14.8361 9.96272 15.0102 9.89031 15.1725C9.81791 15.3348 9.71181 15.4822 9.57813 15.606Z" fill="#34486C"/>
<path d="M9.11401 15.8976C9.28781 15.8299 9.44554 15.7308 9.57813 15.606C9.71181 15.4822 9.81791 15.3348 9.89031 15.1725C9.96272 15.0102 10 14.8361 10 14.6602C10 14.4844 9.96272 14.3103 9.89031 14.148C9.81791 13.9856 9.71181 13.8383 9.57813 13.7145L3.44543 8L9.57813 2.28552C9.71181 2.16169 9.81791 2.01437 9.89031 1.85204C9.96272 1.68972 10 1.51561 10 1.33977C10 1.16392 9.96272 0.989819 9.89031 0.827497C9.81791 0.665174 9.71181 0.517848 9.57813 0.394017C9.44554 0.269166 9.28781 0.170069 9.11401 0.102443C8.94021 0.0348167 8.7538 0 8.56552 0C8.37724 0 8.19083 0.0348167 8.01703 0.102443C7.84324 0.170069 7.6855 0.269166 7.55291 0.394017L0.42187 7.05425C0.288194 7.17808 0.182092 7.3254 0.109685 7.48773C0.0372786 7.65005 0 7.82415 0 8C0 8.17585 0.0372786 8.34995 0.109685 8.51227C0.182092 8.6746 0.288194 8.82192 0.42187 8.94575L7.55291 15.606C7.6855 15.7308 7.84324 15.8299 8.01703 15.8976C8.19083 15.9652 8.37724 16 8.56552 16C8.7538 16 8.94021 15.9652 9.11401 15.8976Z" fill="#34486C"/>
</svg>
