<svg width="12" height="12" viewBox="0 0 12 12" fill="none" xmlns="http://www.w3.org/2000/svg">
<circle cx="6" cy="6" r="6" fill="#FF0D55"/>
<path d="M5.768 7.232L5.624 3.4H6.528L6.376 7.232H5.768ZM6.08 9.048C5.93067 9.048 5.80533 8.99733 5.704 8.896C5.60267 8.79467 5.552 8.67467 5.552 8.536C5.552 8.38667 5.60267 8.264 5.704 8.168C5.80533 8.072 5.93067 8.024 6.08 8.024C6.22933 8.024 6.352 8.072 6.448 8.168C6.544 8.264 6.592 8.38667 6.592 8.536C6.592 8.67467 6.544 8.79467 6.448 8.896C6.352 8.99733 6.22933 9.048 6.08 9.048Z" fill="white"/>
</svg>
