<svg width="10" height="16" viewBox="0 0 10 16" fill="none" xmlns="http://www.w3.org/2000/svg">
<path d="M0.421871 15.606C0.554456 15.7308 0.712194 15.8299 0.885991 15.8976C1.05979 15.9652 1.2462 16 1.43448 16C1.62276 16 1.80917 15.9652 1.98297 15.8976C2.15676 15.8299 2.3145 15.7308 2.44709 15.606L9.57813 8.94575C9.71181 8.82192 9.81791 8.6746 9.89031 8.51227C9.96272 8.34995 10 8.17585 10 8C10 7.82415 9.96272 7.65005 9.89031 7.48773C9.81791 7.3254 9.71181 7.17808 9.57813 7.05425L2.44709 0.394017C2.3145 0.269166 2.15676 0.170069 1.98297 0.102443C1.80917 0.0348167 1.62276 0 1.43448 0C1.2462 0 1.05979 0.0348167 0.885991 0.102443C0.712194 0.170069 0.554456 0.269166 0.421871 0.394017C0.288195 0.517848 0.182093 0.665174 0.109686 0.827497C0.0372791 0.989819 0 1.16392 0 1.33977C0 1.51561 0.0372791 1.68972 0.109686 1.85204C0.182093 2.01437 0.288195 2.16169 0.421871 2.28552L6.55457 8L0.421871 13.7145C0.288195 13.8383 0.182093 13.9856 0.109686 14.148C0.0372791 14.3103 0 14.4844 0 14.6602C0 14.8361 0.0372791 15.0102 0.109686 15.1725C0.182093 15.3348 0.288195 15.4822 0.421871 15.606Z" fill="#34486C"/>
<path d="M0.885991 15.8976C0.712194 15.8299 0.554456 15.7308 0.421871 15.606C0.288195 15.4822 0.182093 15.3348 0.109686 15.1725C0.0372791 15.0102 0 14.8361 0 14.6602C0 14.4844 0.0372791 14.3103 0.109686 14.148C0.182093 13.9856 0.288195 13.8383 0.421871 13.7145L6.55457 8L0.421871 2.28552C0.288195 2.16169 0.182093 2.01437 0.109686 1.85204C0.0372791 1.68972 0 1.51561 0 1.33977C0 1.16392 0.0372791 0.989819 0.109686 0.827497C0.182093 0.665174 0.288195 0.517848 0.421871 0.394017C0.554456 0.269166 0.712194 0.170069 0.885991 0.102443C1.05979 0.0348167 1.2462 0 1.43448 0C1.62276 0 1.80917 0.0348167 1.98297 0.102443C2.15676 0.170069 2.3145 0.269166 2.44709 0.394017L9.57813 7.05425C9.71181 7.17808 9.81791 7.3254 9.89031 7.48773C9.96272 7.65005 10 7.82415 10 8C10 8.17585 9.96272 8.34995 9.89031 8.51227C9.81791 8.6746 9.71181 8.82192 9.57813 8.94575L2.44709 15.606C2.3145 15.7308 2.15676 15.8299 1.98297 15.8976C1.80917 15.9652 1.62276 16 1.43448 16C1.2462 16 1.05979 15.9652 0.885991 15.8976Z" fill="#34486C"/>
</svg>
